<svg width="4432" height="326" viewBox="0 0 4432 326" fill="none" xmlns="http://www.w3.org/2000/svg">
<path d="M0 203.018C0 203.018 174 191 292 265C347.499 299.805 422 301 520 265C618 229.001 670.295 133.457 790 161C903.924 187.213 988.382 249.468 1060 237C1130.46 224.734 1188.17 137.974 1288 135C1489.32 129.003 1679.82 380.967 1816 313C1952.18 245.033 2032.96 182.191 2124 175C2215.04 167.809 2288 217 2288 217C2288 217 2551 288 2612 263C2673 238 2858 268.989 2930 196.995C3002 125 2971 134 3167.69 97.1629C3364.38 60.3259 3747 101 3868 153C3989 205 4232 128 4309 95C4386 62 4435 1 4435 1" stroke="#DBDBDB"/>
</svg>
